<svg id="Flat" height="512" viewBox="0 0 512 512" width="512" xmlns="http://www.w3.org/2000/svg"><path d="m446.419 339.819a208.081 208.081 0 0 1 -381.62-1.81 59.6 59.6 0 0 0 25.27 5.991c16.6 0 35.26-8 53.93-32 0 0 24.89 32 58.07 32 16.6 0 35.26-8 53.93-32 0 0 24.89 32 58.07 32 16.6 0 35.26-8 53.93-32 0 0 24.89 32 58.07 32a52.063 52.063 0 0 0 20.35-4.181z" fill="#8fbad9"/><path d="m379.959 423.029a208.018 208.018 0 0 1 -249.84-1.44 55.347 55.347 0 0 0 15.95 2.41c16.6 0 35.26-8 53.93-32 0 0 24.89 32 58.07 32 16.6 0 35.26-8 53.93-32 0 0 24.89 32 58.07 32a50.584 50.584 0 0 0 9.89-.97z" fill="#a3d4f7"/><path d="m304 280s48 0 48-48-48-96-48-96-48 48-48 96 48 48 48 48" fill="#a3d4f7"/><path d="m176 160c0 17.673 10.745 24 24 24s24-6.327 24-24c0-26.667-24-56-24-56s-24 29.332-24 56z" fill="#8fbad9"/><g fill="#3397e8"><path d="m453.969 320.493a8 8 0 0 0 -10.276 4.736 200 200 0 0 1 -387.693-69.229h16l-24-32-24 32h16a216.038 216.038 0 0 0 418.706 74.769 8 8 0 0 0 -4.737-10.276z"/><path d="m472 256a216.038 216.038 0 0 0 -418.706-74.77 8 8 0 1 0 15.011 5.54 200 200 0 0 1 387.695 69.23h-16l24 32 24-32z"/></g></svg>