<svg height="512" viewBox="0 0 40 60" width="512" xmlns="http://www.w3.org/2000/svg"><g id="Page-1" fill="none" fill-rule="evenodd"><g id="053---Mountain-Location" fill-rule="nonzero" transform="translate(-1 -1)"><path id="Shape" d="m40 21c.0050045 6.0898116-2.9153213 11.8114182-7.85 15.38l-10.24 23.027c-.1624531.356559-.5181769.5853918-.91.5853918s-.7475469-.2288328-.91-.5853918l-10.24-23.028c-7.26661502-5.2665787-9.85726942-14.8994082-6.21264019-23.1004583 3.64462922-8.20105012 12.53051609-12.73358921 21.30921729-10.8694678 8.7787013 1.86412141 15.0559385 9.616488 15.0534229 18.5909261z" fill="#f44335"/><path id="Shape" d="m21 2c-.506 0-1 .037-1.5.076 7.9315612.62300838 14.6332587 6.12566813 16.7879548 13.784329 2.1546962 7.6586609-.6947524 15.8484507-7.1379548 20.515671l-9.65 21.7.59 1.326c.1624531.356559.5181769.5853918.91.5853918s.7475469-.2288328.91-.5853918l10.24-23.024c6.6625491-4.8345374 9.454077-13.4095332 6.9144542-21.2397713-2.5396229-7.830238-9.8326684-13.13445031-18.0644542-13.1382287z" fill="#c81e1e"/><path id="Shape" d="m36 21c.0034383.9092459-.0802778 1.8167284-.25 2.71l-2.83-3.39-2.84-3.42c-.0775146-.0905878-.1907747-.1427379-.31-.1427379s-.2324854.0521501-.31.1427379l-2.08 2.52-6.06-7.27c-.0790344-.0951463-.1963099-.150188-.32-.150188s-.2409656.0550417-.32.150188l-2.82 3.39-3.2 3.84-2.08-2.48c-.0775146-.0905878-.1907747-.1427379-.31-.1427379s-.2324854.0521501-.31.1427379l-2.86 3.44-2.85 3.41c-.16477195-.907432-.24843549-1.8277309-.25-2.75 0-8.2842712 6.7157288-15 15-15s15 6.7157288 15 15z" fill="#02a9f4"/><path id="Shape" d="m21 6c-.506 0-1.006.027-1.5.076 7.420623.75487116 13.1592133 6.8475167 13.469 14.3l2.781 3.334c.1697222-.8932716.2534383-1.8007541.25-2.71-.0027597-8.2831279-6.7168721-14.99724034-15-15z" fill="#0377bc"/><path id="Shape" d="m35.75 23.71c-1.3076394 7.118754-7.5121428 12.2884724-14.75 12.29-2.1400096.0039728-4.2553791-.4566319-6.2-1.35l6.3-7.63 5.49-6.64 2.43 2.43c.3930079.3899779 1.0269921.3899779 1.42 0l2.48-2.49z" fill="#9e9e9e"/><path id="Shape" d="m32.92 20.32-1.632 1.639 1.462 1.751c-1.207521 6.5617608-6.6039629 11.5372297-13.242 12.209.492.049.992.081 1.492.081 7.2378572-.0015276 13.4423606-5.171246 14.75-12.29z" fill="#707070"/><path id="Shape" d="m21.1 27.02-6.3 7.63c-4.4582323-2.0200545-7.64988508-6.0889452-8.55-10.9l2.85-3.41 2.47 2.47c.3930079.3899779 1.0269921.3899779 1.42 0l2.47-2.48z" fill="#7f8e94"/><g fill="#f5f5f5"><path id="Shape" d="m15.46 20.33-2.47 2.48c-.3930079.3899779-1.0269921.3899779-1.42 0l-2.47-2.47 2.86-3.44c.0775146-.0905878.1907747-.1427379.31-.1427379s.2324854.0521501.31.1427379l2.08 2.48.05.05z"/><path id="Shape" d="m32.92 20.32-2.48 2.49c-.3930079.3899779-1.0269921.3899779-1.42 0l-2.43-2.43.79-.95v-.01l2.08-2.52c.0775146-.0905878.1907747-.1427379.31-.1427379s.2324854.0521501.31.1427379z"/><path id="Shape" d="m24.14 15.53-2.58 2.59c-.3129852.3001998-.8070148.3001998-1.12 0l-2.58-2.58 2.82-3.39c.0790344-.0951463.1963099-.150188.32-.150188s.2409656.0550417.32.150188z"/></g><path id="Shape" d="m27.38 19.42v.01l-.79.95-5.49 6.64-5.64-6.69-.75-.9-.05-.05 3.2-3.84 2.58 2.58c.3129852.3001998.8070148.3001998 1.12 0l2.58-2.59z" fill="#607d8b"/><path id="Shape" d="m41 21c.0027791-9.4128111-6.5583279-17.55362551-15.7568627-19.55061768s-18.54462881 2.69038576-22.4451635 11.25699818c-3.90053468 8.5666125-1.29970942 18.6936404 6.2460262 24.3206195l9.771 21.973h-4.815c-.5522847 0-1 .4477153-1 1s.4477153 1 1 1h14c.5522847 0 1-.4477153 1-1s-.4477153-1-1-1h-4.815l9.771-21.973c5.0537224-3.7790741 8.0337744-9.7165795 8.044-16.027zm-20 38-8.945-20.123c.517.26 1.041.5 1.579.718.332257.131831.7096061.0763909.9899036-.1454366s.4209595-.5763415.369-.93-.2886466-.6527324-.6209036-.7845634c-1.3950941-.5534095-2.715372-1.2793944-3.93-2.161-6.31731865-4.5784583-8.96586389-12.7054428-6.55928534-20.1269773 2.40657855-7.42153453 9.32031154-12.44776218 17.12228534-12.44776218s14.7157068 5.02622765 17.1222853 12.44776218c2.4065786 7.4215345-.2419667 15.548519-6.5592853 20.1269773h-.005c-1.214628.8816056-2.5349059 1.6075905-3.93 2.161-.5136248.2037931-.7647931.7853752-.561 1.299s.7853752.7647931 1.299.561c.538-.214 1.062-.459 1.58-.718z" fill="#000"/><path id="Shape" d="m36.73 23.854c.0057935-.0270818.010133-.0544543.013-.082 1.1440043-6.3050176-1.5841126-12.6844348-6.933257-16.21269889-5.3491444-3.52826412-12.2874131-3.52473802-17.6329685.00896126-5.34555541 3.53369933-8.06718677 9.91588603-6.9167745 16.21973763.0033361.0501752.01069304.1000017.022.149.97035533 5.1379321 4.38427496 9.4803424 9.148 11.636.016.006.031.017.047.022 4.4826822 2.017138 9.6449213 1.85537 13.992511-.4384803s7.3951213-6.4636744 8.260489-11.3025197zm-15.73-16.854c7.7285595.00826732 13.9917327 6.2714405 14 14 0 .078-.01.154-.012.233l-1.347-1.618-.007-.011-2.8-3.368c-.2776291-.302667-.6692875-.4752868-1.08-.476-.4093714.0059986-.795603.1908928-1.057.506l-1.319 1.6-5.287-6.353c-.2756759-.308855-.670009-.48545-1.084-.48545s-.8083241.176595-1.084.48545l-5.263 6.305-1.315-1.561c-.2749381-.30468-.6661089-.4785847-1.0765-.4785847s-.8015619.1739047-1.0765.4785847l-4.178 5.012c0-.092-.014-.18-.014-.272.00992017-7.7273879 6.2726102-13.98873588 14-13.997zm.094 18.459-5.126-6.088 1.959-2.351 1.8 1.8c.7025318.7005575 1.8394682.7005575 2.542 0l1.8-1.8 2.006 2.411zm-6.985-5.189-1.832 1.83-1.828-1.829 1.823-2.187zm5.1-4.793 1.791-2.144 1.783 2.143-1.783 1.788zm10.559 2.616 1.8 2.162-1.843 1.845-1.788-1.789zm-22.433 5.918 1.828-2.193 1.7 1.7c.7838541.7804688 2.0511459.7804688 2.835 0l1.7-1.711 4.4 5.221-5.266 6.372c-3.6652354-1.9163429-6.29861213-5.3517708-7.197-9.389zm13.665 10.989c-1.5499298-.0027391-3.0884873-.264686-4.552-.775l10.209-12.361 1.654 1.654c.7843058.7793742 2.0506942.7793742 2.835 0l1.712-1.718 1.815 2.181c-1.4074242 6.4263355-7.0943574 11.0094056-13.673 11.019z" fill="#000"/></g></g></svg>